<?xml version="1.0" standalone="no"?>
<!DOCTYPE svg PUBLIC "-//W3C//DTD SVG 20010904//EN"
 "http://www.w3.org/TR/2001/REC-SVG-20010904/DTD/svg10.dtd">
<svg version="1.0" xmlns="http://www.w3.org/2000/svg"
 width="589.000000pt" height="213.000000pt" viewBox="0 0 589.000000 213.000000"
 preserveAspectRatio="xMidYMid meet">

<g transform="translate(0.000000,213.000000) scale(0.100000,-0.100000)"
fill="#000000" stroke="none">
<path d="M3400 2032 c-21 -10 -45 -34 -60 -62 l-25 -45 0 -635 c0 -700 -2
-672 62 -718 96 -68 216 -12 243 112 8 35 10 241 8 646 -3 594 -3 595 -25 641
-37 74 -125 101 -203 61z m109 -31 c12 -12 22 -40 26 -73 3 -29 5 -332 3 -673
-3 -575 -4 -623 -21 -648 -22 -34 -65 -36 -93 -6 -18 20 -19 48 -22 643 -2
341 0 644 3 673 11 88 60 128 104 84z"/>
<path d="M5409 2027 c-19 -12 -44 -42 -56 -67 -21 -42 -22 -59 -23 -258 0
-246 0 -245 100 -367 100 -122 95 -100 95 -420 0 -252 -2 -284 -18 -308 -13
-20 -26 -27 -50 -27 -35 0 -44 5 -67 34 -12 15 -16 62 -20 215 -4 176 -7 196
-22 199 -17 3 -18 -13 -18 -239 l0 -242 20 18 c20 18 22 18 61 -4 49 -28 94
-23 139 16 62 52 65 65 68 324 5 325 -4 367 -103 474 -93 102 -95 109 -95 352
0 231 6 265 50 283 36 15 59 7 85 -28 18 -24 20 -46 23 -199 4 -162 5 -173 23
-173 18 0 19 10 19 209 0 199 -6 244 -28 205 -8 -14 -12 -14 -43 5 -45 27 -97
27 -140 -2z"/>
<path d="M497 2033 c-5 -8 -18 -171 -37 -443 -6 -85 -17 -238 -25 -340 -8
-102 -19 -257 -25 -345 -21 -327 -19 -316 -53 -328 -34 -13 -7 -26 53 -26 44
1 60 4 60 14 0 8 -10 15 -22 17 -22 3 -23 7 -22 88 0 47 4 120 8 163 l8 77 68
0 68 0 7 -62 c3 -35 7 -108 8 -162 2 -97 1 -100 -21 -105 -53 -13 -12 -26 83
-26 61 0 99 4 98 10 -1 6 -14 11 -28 13 -40 5 -41 7 -65 332 -5 69 -21 269
-35 445 -14 176 -30 379 -35 450 -6 72 -13 154 -16 183 -6 51 -7 52 -40 52
-18 0 -35 -3 -37 -7z m26 -360 c4 -65 15 -228 26 -363 11 -135 21 -272 23
-305 l3 -60 -62 -3 -63 -3 0 61 c0 34 4 114 10 178 14 177 29 374 36 500 4 61
10 112 14 112 4 0 10 -53 13 -117z"/>
<path d="M1380 2030 c0 -6 11 -15 25 -20 l25 -10 -2 -707 -3 -708 -22 -3 c-13
-2 -23 -9 -23 -16 0 -11 93 -14 293 -7 l37 1 0 185 c0 153 -2 183 -14 179 -10
-4 -15 -36 -18 -132 -2 -76 -9 -136 -17 -150 -17 -32 -70 -62 -108 -62 l-33 0
0 711 0 711 30 11 c17 6 30 15 30 19 0 4 -45 8 -100 8 -62 0 -100 -4 -100 -10z"/>
<path d="M2346 2031 c-3 -5 5 -12 19 -15 l25 -6 -2 -713 -3 -712 -23 -3 c-13
-2 -21 -9 -19 -15 4 -13 196 -15 199 -2 1 6 -11 12 -28 15 l-29 5 -3 379 -2
378 22 -6 c13 -3 26 -6 30 -6 15 0 28 -69 28 -151 0 -72 3 -89 15 -89 13 0 15
34 15 245 0 201 -2 245 -14 245 -10 0 -15 -23 -18 -91 -4 -76 -8 -94 -23 -106
-11 -7 -26 -12 -35 -11 -13 3 -15 46 -18 321 l-2 317 37 0 c21 0 52 -9 70 -20
41 -25 54 -72 58 -210 2 -63 8 -106 14 -108 8 -3 11 54 11 182 l0 186 -159 0
c-88 0 -162 -4 -165 -9z"/>
<path d="M4270 2032 c0 -4 14 -13 30 -19 l30 -11 0 -695 c0 -383 -3 -702 -6
-711 -3 -9 -15 -16 -25 -16 -10 0 -19 -7 -19 -15 0 -13 12 -15 68 -13 63 3 91
18 47 27 -11 2 -23 8 -27 15 -4 6 -7 281 -7 611 l1 600 28 -170 c16 -93 33
-197 39 -230 11 -64 55 -338 72 -445 5 -36 17 -103 25 -150 8 -47 20 -123 27
-170 l13 -85 39 0 40 0 5 723 c4 628 7 724 20 732 8 5 18 10 23 10 4 0 7 5 7
10 0 12 -127 13 -134 1 -3 -5 5 -12 18 -15 13 -3 26 -16 30 -28 7 -27 8 -1114
1 -1107 -4 5 -21 101 -65 369 -10 63 -25 156 -34 205 -8 50 -25 146 -36 215
-11 69 -29 175 -40 235 -11 61 -20 116 -20 123 0 8 -22 12 -75 12 -41 0 -75
-4 -75 -8z"/>
<path d="M3584 231 c-13 -13 0 -19 31 -14 l35 6 0 -65 c0 -36 -5 -69 -12 -76
-9 -9 -7 -12 12 -12 25 0 25 1 22 75 -4 74 -3 75 21 75 14 0 28 -6 30 -12 4
-8 6 -7 6 4 1 13 -11 17 -70 20 -39 2 -73 1 -75 -1z"/>
<path d="M4784 226 c-42 -18 -61 -65 -44 -106 12 -29 37 -50 59 -50 5 0 -1 11
-14 25 -29 28 -34 85 -9 109 19 20 68 21 83 3 24 -29 25 -77 2 -108 -26 -35
-14 -39 17 -6 62 66 -11 169 -94 133z"/>
<path d="M5134 230 c-29 -12 -54 -49 -54 -81 0 -32 35 -79 58 -79 15 1 16 2 1
13 -21 16 -39 51 -39 77 0 31 43 70 69 63 50 -13 69 -95 30 -134 -19 -19 -19
-20 -2 -17 10 2 27 19 37 39 17 32 18 40 6 69 -9 21 -25 37 -46 46 -19 8 -35
14 -36 13 -2 0 -13 -4 -24 -9z"/>
<path d="M350 215 c8 -10 11 -37 8 -80 -3 -54 -1 -65 12 -65 12 0 15 9 12 41
l-4 40 43 -3 c44 -3 44 -3 44 -41 0 -26 4 -37 15 -37 12 0 14 13 12 71 -3 52
0 74 10 80 8 6 1 8 -22 8 -19 0 -29 -3 -22 -6 6 -2 12 -18 12 -34 0 -28 -2
-29 -46 -29 l-46 0 4 35 c4 31 2 35 -20 35 -21 0 -22 -2 -12 -15z"/>
<path d="M742 213 c-5 -10 -15 -36 -22 -58 -7 -22 -19 -50 -26 -62 -13 -21
-13 -23 6 -23 12 0 18 5 15 10 -14 22 6 50 36 50 28 0 33 -7 32 -48 -1 -6 7
-12 17 -12 15 0 15 7 -9 74 -31 87 -36 94 -49 69z m21 -43 c6 -23 -10 -37 -24
-23 -10 10 -2 43 11 43 4 0 10 -9 13 -20z"/>
<path d="M1008 218 c16 -16 16 -135 0 -141 -7 -3 -2 -6 12 -6 25 -1 25 0 25
79 0 78 -1 80 -24 80 -20 0 -22 -3 -13 -12z"/>
<path d="M1248 219 c7 -8 12 -39 12 -75 0 -41 -4 -64 -12 -67 -7 -3 -2 -6 12
-6 25 -1 25 0 22 74 -2 45 0 75 6 75 42 0 57 -41 23 -62 -19 -11 -18 -13 11
-50 16 -21 37 -38 46 -38 12 0 9 7 -11 28 -30 31 -33 43 -15 72 21 33 -1 54
-58 58 -39 3 -47 1 -36 -9z"/>
<path d="M1806 218 c-13 -7 -16 -17 -11 -35 4 -17 0 -32 -11 -44 -14 -16 -15
-24 -6 -44 13 -28 58 -35 81 -12 11 10 14 10 18 0 3 -8 20 -13 41 -12 22 1 29
3 17 6 -52 13 -57 38 -16 82 l29 31 -24 0 c-16 0 -24 -6 -24 -17 0 -10 -4 -25
-10 -33 -7 -12 -12 -11 -30 5 -14 13 -17 22 -10 29 26 26 -10 63 -44 44z m32
-25 c-4 -22 -22 -20 -26 1 -2 10 3 16 13 16 10 0 15 -7 13 -17z m22 -89 c0
-18 -38 -28 -55 -14 -18 15 -19 36 -2 55 10 11 16 10 35 -8 12 -11 22 -26 22
-33z"/>
<path d="M2348 221 c10 -6 13 -28 10 -80 -3 -70 -3 -71 22 -71 19 0 21 3 12
12 -17 17 -15 68 2 68 45 0 65 -48 29 -69 -15 -9 -15 -10 -2 -11 32 0 55 59
29 75 -6 3 -7 17 -4 31 9 37 -11 54 -65 54 -29 0 -41 -3 -33 -9z m80 -25 c2
-10 -2 -22 -10 -27 -25 -17 -38 -9 -38 22 0 26 3 30 22 27 13 -2 24 -11 26
-22z"/>
<path d="M2659 211 c14 -25 14 -97 0 -122 -10 -19 -7 -20 47 -17 40 2 59 7 62
18 4 12 2 13 -9 3 -7 -7 -25 -13 -40 -13 -22 0 -27 5 -31 31 -5 35 13 49 37
29 12 -10 15 -9 15 8 0 15 -5 20 -15 16 -27 -11 -43 3 -38 30 6 29 39 36 62
14 11 -11 13 -10 9 2 -3 10 -21 16 -57 18 -49 3 -52 2 -42 -17z"/>
<path d="M2976 158 c-15 -40 -33 -76 -39 -80 -7 -5 -3 -8 11 -8 13 0 20 4 17
10 -11 18 15 50 41 50 19 0 26 -6 31 -30 3 -20 12 -30 23 -30 17 0 17 2 0 38
-10 20 -24 56 -31 80 -6 23 -15 42 -19 42 -4 0 -20 -33 -34 -72z m41 -14 c-3
-4 -13 -4 -22 0 -13 5 -14 10 -4 28 l12 23 10 -23 c6 -12 7 -25 4 -28z"/>
<path d="M3258 223 c8 -3 12 -26 12 -67 0 -72 10 -86 61 -86 48 0 60 17 68 95
6 59 5 65 -11 65 -16 0 -17 -3 -7 -21 13 -25 6 -93 -11 -114 -15 -18 -52 -19
-68 -3 -16 16 -16 125 1 131 6 3 -4 5 -23 5 -19 0 -29 -2 -22 -5z"/>
<path d="M3918 203 c33 -48 48 -99 33 -117 -12 -14 -10 -16 11 -16 21 0 24 4
20 34 -4 35 27 110 50 119 7 3 0 6 -15 6 -18 1 -26 -3 -21 -10 7 -11 -14 -59
-26 -59 -11 0 -31 50 -25 61 4 5 -6 9 -20 9 l-26 0 19 -27z"/>
<path d="M4428 221 c10 -6 13 -28 10 -80 -3 -70 -3 -71 22 -70 14 0 19 3 13 6
-7 2 -13 18 -13 34 0 39 20 37 48 -6 12 -19 29 -35 38 -35 12 0 10 7 -10 31
-30 35 -31 42 -11 59 38 31 3 70 -63 70 -30 0 -42 -3 -34 -9z m77 -36 c0 -23
-5 -31 -22 -33 -20 -3 -23 1 -23 33 0 32 3 36 23 33 17 -2 22 -10 22 -33z"/>
<path d="M5437 219 c13 -13 6 -117 -10 -136 -7 -10 -4 -13 9 -13 17 0 19 7 16
55 -2 30 0 55 5 55 4 0 19 -26 33 -57 l25 -56 33 59 33 59 -3 -58 c-2 -45 0
-57 12 -57 12 0 15 16 15 80 0 50 -4 80 -11 80 -6 0 -23 -27 -39 -60 -16 -33
-31 -60 -34 -60 -8 1 -51 93 -51 108 0 7 -10 12 -22 12 -16 0 -19 -3 -11 -11z"/>
</g>
</svg>
